<?xml version="1.0" encoding="UTF-8" standalone="no"?>
<svg
   xmlns:dc="http://purl.org/dc/elements/1.1/"
   xmlns:cc="http://creativecommons.org/ns#"
   xmlns:rdf="http://www.w3.org/1999/02/22-rdf-syntax-ns#"
   xmlns:svg="http://www.w3.org/2000/svg"
   xmlns="http://www.w3.org/2000/svg"
   xmlns:sodipodi="http://sodipodi.sourceforge.net/DTD/sodipodi-0.dtd"
   xmlns:inkscape="http://www.inkscape.org/namespaces/inkscape"
   sodipodi:docname="logo.svg"
   inkscape:version="1.0 (4035a4fb49, 2020-05-01)"
   id="svg46"
   version="1.1"
   viewBox="0 0 210 297"
   height="297mm"
   width="210mm">
  <defs
     id="defs40">
    <rect
       id="rect12-6"
       height="39.021351"
       width="128.82391"
       y="9.3544331"
       x="12.828937" />
    <rect
       id="rect33"
       height="39.021351"
       width="128.82391"
       y="9.3544331"
       x="12.828937" />
  </defs>
  <sodipodi:namedview
     inkscape:window-maximized="0"
     inkscape:window-y="64"
     inkscape:window-x="315"
     inkscape:window-height="1208"
     inkscape:window-width="1635"
     showgrid="false"
     inkscape:document-rotation="0"
     inkscape:current-layer="g1093"
     inkscape:document-units="mm"
     inkscape:cy="665.73506"
     inkscape:cx="217.69764"
     inkscape:zoom="0.7"
     inkscape:pageshadow="2"
     inkscape:pageopacity="0.0"
     borderopacity="1.0"
     bordercolor="#666666"
     pagecolor="#ffffff"
     id="base" />
  <metadata
     id="metadata43">
    <rdf:RDF>
      <cc:Work
         rdf:about="">
        <dc:format>image/svg+xml</dc:format>
        <dc:type
           rdf:resource="http://purl.org/dc/dcmitype/StillImage" />
        <dc:title></dc:title>
      </cc:Work>
    </rdf:RDF>
  </metadata>
  <g
     id="layer1"
     inkscape:groupmode="layer"
     inkscape:label="Calque 1">
    <g
       id="g1093"
       style="fill:#ff00ff"
       transform="translate(-24.381404,-73.163232)">
      <text
         xml:space="preserve"
         id="text10"
         style="font-style:normal;font-variant:normal;font-weight:bold;font-stretch:normal;font-size:14.1111px;line-height:0;font-family:sans-serif;-inkscape-font-specification:'sans-serif, Bold';font-variant-ligatures:normal;font-variant-caps:normal;font-variant-numeric:normal;font-variant-east-asian:normal;white-space:pre;shape-inside:url(#rect12-6);fill:#ffffff;fill-opacity:1;stroke:none;"
         transform="translate(12.993307,74.960544)"><tspan
           x="12.828125"
           y="22.2275"><tspan
             style="font-style:normal;font-variant:normal;font-weight:bold;font-stretch:normal;font-size:14.1111px;line-height:1.25;font-family:sans-serif;-inkscape-font-specification:'sans-serif, Bold';font-variant-ligatures:normal;font-variant-caps:normal;font-variant-numeric:normal;font-variant-east-asian:normal;fill:#ffffff">Irimbi</tspan></tspan></text>
      <path
         style="display:inline;fill:#ffffff;stroke-width:0.0526344"
         fill="currentColor"
         d="M 80.553631,101.44819 C 87.343389,94.566551 87.258809,83.493725 80.387384,76.714058 80.085465,76.41617 79.620436,76.370133 79.267386,76.594102 l -3.397201,2.155264 a 0.90462944,0.90462944 0 0 0 -0.353071,1.105513 l 1.734402,4.25294 a 0.90468207,0.90468207 0 0 0 0.933771,0.557925 l 2.93549,-0.313436 c 1.128592,3.059022 1.128202,6.438763 0.0635,9.448471 l -2.939491,-0.274003 a 0.90468207,0.90468207 0 0 0 -0.926185,0.570428 l -1.677078,4.275921 a 0.90468207,0.90468207 0 0 0 0.367901,1.100668 l 3.425864,2.109397 a 0.90478735,0.90478735 0 0 0 1.118341,-0.135 z M 72.523954,79.842942 c -0.615665,1.059326 -0.606835,2.373105 0.02302,3.42406 0.210271,0.350879 0.692735,0.414272 0.986104,0.129226 l 0.312459,-0.303492 c 0.204522,-0.198653 0.248868,-0.508134 0.113906,-0.759248 a 1.6876205,1.6876205 0 0 1 -0.01058,-1.576104 c 0.131627,-0.252904 0.08307,-0.56176 -0.1241,-0.757646 l -0.316521,-0.299265 c -0.297175,-0.281077 -0.778741,-0.211204 -0.984278,0.142469 z m -4.863313,-4.767005 c -3.140035,3.790032 -3.100621,9.278514 0.08753,13.022959 0.237366,0.278794 0.661527,0.297999 0.924149,0.0429 l 0.303204,-0.294535 c 0.238462,-0.231676 0.257878,-0.608573 0.04315,-0.862412 -2.636249,-3.116106 -2.664655,-7.663376 -0.07267,-10.812043 0.211292,-0.256704 0.186865,-0.633306 -0.05474,-0.861753 L 68.58413,75.020621 c -0.266028,-0.251548 -0.689893,-0.226644 -0.923491,0.05532 z m 2.43556,2.349131 c -1.881045,2.450835 -1.861166,5.862918 0.05573,8.292171 0.233056,0.295352 0.670496,0.324519 0.940281,0.06232 l 0.304247,-0.295701 c 0.230095,-0.223618 0.259137,-0.585736 0.062,-0.838957 -1.408905,-1.809831 -1.425783,-4.336652 -0.04144,-6.165152 0.193718,-0.255849 0.159812,-0.617491 -0.07327,-0.838047 l -0.30819,-0.291584 c -0.273285,-0.258552 -0.710294,-0.223507 -0.939358,0.07495 z"
         id="path68" />
    </g>
  </g>
</svg>
